<svg width="102" height="98" viewBox="0 0 102 98" fill="none" xmlns="http://www.w3.org/2000/svg">
<g clip-path="url(#clip0_23_85)">
<rect width="102" height="98" fill="white"/>
<mask id="path-1-outside-1_23_85" maskUnits="userSpaceOnUse" x="-1" y="-1" width="104" height="100" fill="black">
<rect fill="white" x="-1" y="-1" width="104" height="100"/>
<path d="M102 49C102 76.062 79.1665 98 51 98C22.8335 98 0 76.062 0 49C0 21.938 22.8335 0 51 0C79.1665 0 102 21.938 102 49ZM9.18 49C9.18 71.1908 27.9035 89.18 51 89.18C74.0965 89.18 92.82 71.1908 92.82 49C92.82 26.8092 74.0965 8.82 51 8.82C27.9035 8.82 9.18 26.8092 9.18 49Z"/>
</mask>
<path d="M102 49C102 76.062 79.1665 98 51 98C22.8335 98 0 76.062 0 49C0 21.938 22.8335 0 51 0C79.1665 0 102 21.938 102 49ZM9.18 49C9.18 71.1908 27.9035 89.18 51 89.18C74.0965 89.18 92.82 71.1908 92.82 49C92.82 26.8092 74.0965 8.82 51 8.82C27.9035 8.82 9.18 26.8092 9.18 49Z" fill="#37464F"/>
<path d="M102 49C102 76.062 79.1665 98 51 98C22.8335 98 0 76.062 0 49C0 21.938 22.8335 0 51 0C79.1665 0 102 21.938 102 49ZM9.18 49C9.18 71.1908 27.9035 89.18 51 89.18C74.0965 89.18 92.82 71.1908 92.82 49C92.82 26.8092 74.0965 8.82 51 8.82C27.9035 8.82 9.18 26.8092 9.18 49Z" stroke="#131F24" stroke-width="2" mask="url(#path-1-outside-1_23_85)"/>
<mask id="path-2-outside-2_23_85" maskUnits="userSpaceOnUse" x="-2" y="-2" width="106" height="102" fill="black">
<rect fill="white" x="-2" y="-2" width="106" height="102"/>
<path d="M51 4.41C51 1.97442 52.9779 -0.019071 55.4051 0.183094C63.9381 0.893834 72.1732 3.66087 79.3341 8.25799C87.721 13.6422 94.2578 21.2949 98.1179 30.2485C101.978 39.2021 102.988 49.0544 101.02 58.5594C99.0522 68.0645 94.1949 76.7955 87.0624 83.6482C79.93 90.501 70.8426 95.1678 60.9496 97.0585C51.0566 98.9492 40.8022 97.9788 31.4831 94.2701C22.1641 90.5614 14.199 84.2809 8.59505 76.2229C3.8785 69.4409 1.01282 61.6562 0.223512 53.5828C-0.0231521 51.0599 2.05501 49 4.59 49V49C7.12499 49 9.15192 51.0622 9.45246 53.5793C10.2078 59.9055 12.5206 65.9919 16.2279 71.3228C20.8232 77.9304 27.3546 83.0804 34.9962 86.1215C42.6378 89.1626 51.0464 89.9583 59.1587 88.408C67.271 86.8576 74.7226 83.0308 80.5712 77.4116C86.4198 71.7923 90.4028 64.6329 92.0164 56.8387C93.6301 49.0446 92.8019 40.9657 89.6366 33.6238C86.4714 26.2818 81.1112 20.0066 74.2339 15.5916C68.5834 11.964 62.1173 9.72618 55.4026 9.04324C52.9795 8.7968 51 6.84558 51 4.41V4.41Z"/>
</mask>
<path d="M51 4.41C51 1.97442 52.9779 -0.019071 55.4051 0.183094C63.9381 0.893834 72.1732 3.66087 79.3341 8.25799C87.721 13.6422 94.2578 21.2949 98.1179 30.2485C101.978 39.2021 102.988 49.0544 101.02 58.5594C99.0522 68.0645 94.1949 76.7955 87.0624 83.6482C79.93 90.501 70.8426 95.1678 60.9496 97.0585C51.0566 98.9492 40.8022 97.9788 31.4831 94.2701C22.1641 90.5614 14.199 84.2809 8.59505 76.2229C3.8785 69.4409 1.01282 61.6562 0.223512 53.5828C-0.0231521 51.0599 2.05501 49 4.59 49V49C7.12499 49 9.15192 51.0622 9.45246 53.5793C10.2078 59.9055 12.5206 65.9919 16.2279 71.3228C20.8232 77.9304 27.3546 83.0804 34.9962 86.1215C42.6378 89.1626 51.0464 89.9583 59.1587 88.408C67.271 86.8576 74.7226 83.0308 80.5712 77.4116C86.4198 71.7923 90.4028 64.6329 92.0164 56.8387C93.6301 49.0446 92.8019 40.9657 89.6366 33.6238C86.4714 26.2818 81.1112 20.0066 74.2339 15.5916C68.5834 11.964 62.1173 9.72618 55.4026 9.04324C52.9795 8.7968 51 6.84558 51 4.41V4.41Z" fill="#58CC02"/>
<path d="M51 4.41C51 1.97442 52.9779 -0.019071 55.4051 0.183094C63.9381 0.893834 72.1732 3.66087 79.3341 8.25799C87.721 13.6422 94.2578 21.2949 98.1179 30.2485C101.978 39.2021 102.988 49.0544 101.02 58.5594C99.0522 68.0645 94.1949 76.7955 87.0624 83.6482C79.93 90.501 70.8426 95.1678 60.9496 97.0585C51.0566 98.9492 40.8022 97.9788 31.4831 94.2701C22.1641 90.5614 14.199 84.2809 8.59505 76.2229C3.8785 69.4409 1.01282 61.6562 0.223512 53.5828C-0.0231521 51.0599 2.05501 49 4.59 49V49C7.12499 49 9.15192 51.0622 9.45246 53.5793C10.2078 59.9055 12.5206 65.9919 16.2279 71.3228C20.8232 77.9304 27.3546 83.0804 34.9962 86.1215C42.6378 89.1626 51.0464 89.9583 59.1587 88.408C67.271 86.8576 74.7226 83.0308 80.5712 77.4116C86.4198 71.7923 90.4028 64.6329 92.0164 56.8387C93.6301 49.0446 92.8019 40.9657 89.6366 33.6238C86.4714 26.2818 81.1112 20.0066 74.2339 15.5916C68.5834 11.964 62.1173 9.72618 55.4026 9.04324C52.9795 8.7968 51 6.84558 51 4.41V4.41Z" stroke="#131F24" stroke-width="4" stroke-linejoin="round" mask="url(#path-2-outside-2_23_85)"/>
</g>
<defs>
<clipPath id="clip0_23_85">
<rect width="102" height="98" fill="white"/>
</clipPath>
</defs>
</svg>
