<svg width="102" height="98" viewBox="0 0 102 98" fill="none" xmlns="http://www.w3.org/2000/svg">
<path d="M102 49C102 76.062 79.1665 98 51 98C22.8335 98 0 76.062 0 49C0 21.938 22.8335 0 51 0C79.1665 0 102 21.938 102 49ZM9.18 49C9.18 71.1908 27.9035 89.18 51 89.18C74.0965 89.18 92.82 71.1908 92.82 49C92.82 26.8092 74.0965 8.82 51 8.82C27.9035 8.82 9.18 26.8092 9.18 49Z" fill="#E5E5E5"/>
<mask id="path-2-outside-1_7_81" maskUnits="userSpaceOnUse" x="49" y="-2" width="52" height="40" fill="black">
<rect fill="white" x="49" y="-2" width="52" height="40"/>
<path d="M51 4.41C51 1.97442 52.978 -0.0190735 55.4051 0.183086C64.6107 0.949821 73.457 4.10879 80.977 9.35817C88.3788 14.525 94.173 21.4916 97.7897 29.5046C98.8458 31.8444 97.4863 34.488 95.0359 35.253V35.253C92.6656 35.9929 90.1623 34.6906 89.1049 32.4439C86.125 26.1128 81.4745 20.6075 75.5812 16.4937C69.6303 12.3397 62.6666 9.78203 55.4026 9.04324C52.9796 8.79679 51 6.84558 51 4.41V4.41Z"/>
</mask>
<path d="M51 4.41C51 1.97442 52.978 -0.0190735 55.4051 0.183086C64.6107 0.949821 73.457 4.10879 80.977 9.35817C88.3788 14.525 94.173 21.4916 97.7897 29.5046C98.8458 31.8444 97.4863 34.488 95.0359 35.253V35.253C92.6656 35.9929 90.1623 34.6906 89.1049 32.4439C86.125 26.1128 81.4745 20.6075 75.5812 16.4937C69.6303 12.3397 62.6666 9.78203 55.4026 9.04324C52.9796 8.79679 51 6.84558 51 4.41V4.41Z" fill="#58CC02"/>
<path d="M51 4.41C51 1.97442 52.978 -0.0190735 55.4051 0.183086C64.6107 0.949821 73.457 4.10879 80.977 9.35817C88.3788 14.525 94.173 21.4916 97.7897 29.5046C98.8458 31.8444 97.4863 34.488 95.0359 35.253V35.253C92.6656 35.9929 90.1623 34.6906 89.1049 32.4439C86.125 26.1128 81.4745 20.6075 75.5812 16.4937C69.6303 12.3397 62.6666 9.78203 55.4026 9.04324C52.9796 8.79679 51 6.84558 51 4.41V4.41Z" stroke="white" stroke-width="4" stroke-linejoin="round" mask="url(#path-2-outside-1_7_81)"/>
</svg>
