<svg width="102" height="98" viewBox="0 0 102 98" fill="none" xmlns="http://www.w3.org/2000/svg">
<g clip-path="url(#clip0_23_117)">
<rect width="102" height="98" fill="white"/>
<path d="M102 49C102 76.062 79.1665 98 51 98C22.8335 98 0 76.062 0 49C0 21.938 22.8335 0 51 0C79.1665 0 102 21.938 102 49ZM9.18 49C9.18 71.1908 27.9035 89.18 51 89.18C74.0965 89.18 92.82 71.1908 92.82 49C92.82 26.8092 74.0965 8.82 51 8.82C27.9035 8.82 9.18 26.8092 9.18 49Z" fill="#37464F"/>
<mask id="path-2-outside-1_23_117" maskUnits="userSpaceOnUse" x="-2" y="-2" width="106" height="102" fill="black">
<rect fill="white" x="-2" y="-2" width="106" height="102"/>
<path d="M51 4.41C51 1.97442 52.9779 -0.0190777 55.4051 0.183074C65.0599 0.987191 74.3102 4.42198 82.0468 10.1257C90.9537 16.6921 97.3565 25.8988 100.262 36.3179C103.168 46.7369 102.414 57.786 98.1179 67.7515C93.8215 77.717 86.2227 86.042 76.5 91.4352C66.7773 96.8285 55.474 98.9887 44.3432 97.5808C33.2124 96.1729 22.8761 91.2755 14.9376 83.6482C6.99898 76.021 1.90171 66.0901 0.436313 55.3958C-0.831426 46.144 0.680308 36.7681 4.74573 28.3588C5.81112 26.1551 8.52959 25.4413 10.6701 26.6286V26.6286C12.9181 27.8756 13.6582 30.7306 12.6047 33.0755C9.62379 39.7098 8.54827 47.0233 9.53778 54.2445C10.7394 63.0139 14.9192 71.1572 21.4288 77.4116C27.9384 83.6659 36.4141 87.6818 45.5414 88.8363C54.6687 89.9908 63.9374 88.2194 71.91 83.7969C79.8826 79.3744 86.1137 72.5479 89.6366 64.3762C93.1596 56.2045 93.7777 47.1443 91.395 38.6006C89.0123 30.057 83.762 22.5076 76.4584 17.1231C70.3258 12.6019 63.0333 9.81929 55.4026 9.04322C52.9795 8.79679 51 6.84558 51 4.41V4.41Z"/>
</mask>
<path d="M51 4.41C51 1.97442 52.9779 -0.0190777 55.4051 0.183074C65.0599 0.987191 74.3102 4.42198 82.0468 10.1257C90.9537 16.6921 97.3565 25.8988 100.262 36.3179C103.168 46.7369 102.414 57.786 98.1179 67.7515C93.8215 77.717 86.2227 86.042 76.5 91.4352C66.7773 96.8285 55.474 98.9887 44.3432 97.5808C33.2124 96.1729 22.8761 91.2755 14.9376 83.6482C6.99898 76.021 1.90171 66.0901 0.436313 55.3958C-0.831426 46.144 0.680308 36.7681 4.74573 28.3588C5.81112 26.1551 8.52959 25.4413 10.6701 26.6286V26.6286C12.9181 27.8756 13.6582 30.7306 12.6047 33.0755C9.62379 39.7098 8.54827 47.0233 9.53778 54.2445C10.7394 63.0139 14.9192 71.1572 21.4288 77.4116C27.9384 83.6659 36.4141 87.6818 45.5414 88.8363C54.6687 89.9908 63.9374 88.2194 71.91 83.7969C79.8826 79.3744 86.1137 72.5479 89.6366 64.3762C93.1596 56.2045 93.7777 47.1443 91.395 38.6006C89.0123 30.057 83.762 22.5076 76.4584 17.1231C70.3258 12.6019 63.0333 9.81929 55.4026 9.04322C52.9795 8.79679 51 6.84558 51 4.41V4.41Z" fill="#58CC02"/>
<path d="M51 4.41C51 1.97442 52.9779 -0.0190777 55.4051 0.183074C65.0599 0.987191 74.3102 4.42198 82.0468 10.1257C90.9537 16.6921 97.3565 25.8988 100.262 36.3179C103.168 46.7369 102.414 57.786 98.1179 67.7515C93.8215 77.717 86.2227 86.042 76.5 91.4352C66.7773 96.8285 55.474 98.9887 44.3432 97.5808C33.2124 96.1729 22.8761 91.2755 14.9376 83.6482C6.99898 76.021 1.90171 66.0901 0.436313 55.3958C-0.831426 46.144 0.680308 36.7681 4.74573 28.3588C5.81112 26.1551 8.52959 25.4413 10.6701 26.6286V26.6286C12.9181 27.8756 13.6582 30.7306 12.6047 33.0755C9.62379 39.7098 8.54827 47.0233 9.53778 54.2445C10.7394 63.0139 14.9192 71.1572 21.4288 77.4116C27.9384 83.6659 36.4141 87.6818 45.5414 88.8363C54.6687 89.9908 63.9374 88.2194 71.91 83.7969C79.8826 79.3744 86.1137 72.5479 89.6366 64.3762C93.1596 56.2045 93.7777 47.1443 91.395 38.6006C89.0123 30.057 83.762 22.5076 76.4584 17.1231C70.3258 12.6019 63.0333 9.81929 55.4026 9.04322C52.9795 8.79679 51 6.84558 51 4.41V4.41Z" stroke="#131F24" stroke-width="4" stroke-linejoin="round" mask="url(#path-2-outside-1_23_117)"/>
</g>
<defs>
<clipPath id="clip0_23_117">
<rect width="102" height="98" fill="white"/>
</clipPath>
</defs>
</svg>
