<svg width="102" height="98" viewBox="0 0 102 98" fill="none" xmlns="http://www.w3.org/2000/svg">
<path d="M102 49C102 76.062 79.1665 98 51 98C22.8335 98 0 76.062 0 49C0 21.938 22.8335 0 51 0C79.1665 0 102 21.938 102 49ZM9.18 49C9.18 71.1908 27.9035 89.18 51 89.18C74.0965 89.18 92.82 71.1908 92.82 49C92.82 26.8092 74.0965 8.82 51 8.82C27.9035 8.82 9.18 26.8092 9.18 49Z" fill="#E5E5E5"/>
<mask id="path-2-outside-1_7_53" maskUnits="userSpaceOnUse" x="49" y="-2" width="55" height="53" fill="black">
<rect fill="white" x="49" y="-2" width="55" height="53"/>
<path d="M51 4.41C51 1.97442 52.9778 -0.0190628 55.405 0.183111C60.5928 0.615233 65.69 1.80895 70.5169 3.7299C76.7045 6.19238 82.3267 9.8017 87.0624 14.3518C91.7982 18.9018 95.5549 24.3036 98.1179 30.2485C100.07 34.7773 101.301 39.5539 101.776 44.4172C102.023 46.9402 99.945 49 97.41 49V49C94.875 49 92.8481 46.9379 92.5475 44.4208C92.1053 40.7166 91.1276 37.0821 89.6366 33.6238C87.535 28.7489 84.4546 24.3195 80.5712 20.5884C76.6879 16.8574 72.0777 13.8978 67.0038 11.8785C63.2912 10.401 59.3835 9.44817 55.4025 9.04326C52.9794 8.79681 51 6.84558 51 4.41V4.41Z"/>
</mask>
<path d="M51 4.41C51 1.97442 52.9778 -0.0190628 55.405 0.183111C60.5928 0.615233 65.69 1.80895 70.5169 3.7299C76.7045 6.19238 82.3267 9.8017 87.0624 14.3518C91.7982 18.9018 95.5549 24.3036 98.1179 30.2485C100.07 34.7773 101.301 39.5539 101.776 44.4172C102.023 46.9402 99.945 49 97.41 49V49C94.875 49 92.8481 46.9379 92.5475 44.4208C92.1053 40.7166 91.1276 37.0821 89.6366 33.6238C87.535 28.7489 84.4546 24.3195 80.5712 20.5884C76.6879 16.8574 72.0777 13.8978 67.0038 11.8785C63.2912 10.401 59.3835 9.44817 55.4025 9.04326C52.9794 8.79681 51 6.84558 51 4.41V4.41Z" fill="#58CC02"/>
<path d="M51 4.41C51 1.97442 52.9778 -0.0190628 55.405 0.183111C60.5928 0.615233 65.69 1.80895 70.5169 3.7299C76.7045 6.19238 82.3267 9.8017 87.0624 14.3518C91.7982 18.9018 95.5549 24.3036 98.1179 30.2485C100.07 34.7773 101.301 39.5539 101.776 44.4172C102.023 46.9402 99.945 49 97.41 49V49C94.875 49 92.8481 46.9379 92.5475 44.4208C92.1053 40.7166 91.1276 37.0821 89.6366 33.6238C87.535 28.7489 84.4546 24.3195 80.5712 20.5884C76.6879 16.8574 72.0777 13.8978 67.0038 11.8785C63.2912 10.401 59.3835 9.44817 55.4025 9.04326C52.9794 8.79681 51 6.84558 51 4.41V4.41Z" stroke="white" stroke-width="4" stroke-linejoin="round" mask="url(#path-2-outside-1_7_53)"/>
</svg>
