<svg width="102"
height="98"
viewBox="0 0 102 98"
fill="none"
xmlns="http://www.w3.org/2000/svg">
<path d="M102 49C102 76.062 79.1665 98 51 98C22.8335 98 0 76.062 0 49C0 21.938 22.8335 0 51 0C79.1665 0 102 21.938 102 49ZM9.18 49C9.18 71.1908 27.9035 89.18 51 89.18C74.0965 89.18 92.82 71.1908 92.82 49C92.82 26.8092 74.0965 8.82 51 8.82C27.9035 8.82 9.18 26.8092 9.18 49Z" fill="#E5E5E5"/>
<mask id="path-2-outside-1_7_86" maskUnits="userSpaceOnUse" x="20" y="-2" width="84" height="102" fill="black">
<rect fill="white" x="20" y="-2" width="84" height="102"/>
<path d="M51 4.41C51 1.97442 52.9778 -0.0190653 55.405 0.183108C61.9279 0.726437 68.2953 2.47282 74.1535 5.34068C81.3246 8.85126 87.5292 13.9426 92.2599 20.1985C96.9906 26.4544 100.113 33.6972 101.372 41.3347C102.631 48.9722 101.991 56.7876 99.5039 64.1418C97.0168 71.4961 92.7535 78.1804 87.0624 83.6482C81.3714 89.1161 74.4143 93.2122 66.7599 95.6018C59.1054 97.9913 50.9711 98.6064 43.0218 97.3967C36.6231 96.423 30.4905 94.2892 24.9456 91.1232C22.7439 89.8661 22.2943 86.9606 23.8235 84.9384V84.9384C25.2725 83.0221 27.967 82.6175 30.0671 83.7842C34.4997 86.2466 39.3764 87.9121 44.4579 88.6853C50.9763 89.6772 57.6465 89.1729 63.9231 87.2135C70.1997 85.254 75.9046 81.8952 80.5712 77.4116C85.2378 72.9279 88.7338 67.4468 90.7732 61.4163C92.8126 55.3858 93.3375 48.9772 92.3051 42.7145C91.2727 36.4517 88.7123 30.5126 84.8331 25.3828C80.9539 20.253 75.8662 16.078 69.9859 13.1994C65.4191 10.9637 60.4749 9.55917 55.4025 9.04326C52.9794 8.79681 51 6.84558 51 4.41V4.41Z"/>
</mask>
<path d="M51 4.41C51 1.97442 52.9778 -0.0190653 55.405 0.183108C61.9279 0.726437 68.2953 2.47282 74.1535 5.34068C81.3246 8.85126 87.5292 13.9426 92.2599 20.1985C96.9906 26.4544 100.113 33.6972 101.372 41.3347C102.631 48.9722 101.991 56.7876 99.5039 64.1418C97.0168 71.4961 92.7535 78.1804 87.0624 83.6482C81.3714 89.1161 74.4143 93.2122 66.7599 95.6018C59.1054 97.9913 50.9711 98.6064 43.0218 97.3967C36.6231 96.423 30.4905 94.2892 24.9456 91.1232C22.7439 89.8661 22.2943 86.9606 23.8235 84.9384V84.9384C25.2725 83.0221 27.967 82.6175 30.0671 83.7842C34.4997 86.2466 39.3764 87.9121 44.4579 88.6853C50.9763 89.6772 57.6465 89.1729 63.9231 87.2135C70.1997 85.254 75.9046 81.8952 80.5712 77.4116C85.2378 72.9279 88.7338 67.4468 90.7732 61.4163C92.8126 55.3858 93.3375 48.9772 92.3051 42.7145C91.2727 36.4517 88.7123 30.5126 84.8331 25.3828C80.9539 20.253 75.8662 16.078 69.9859 13.1994C65.4191 10.9637 60.4749 9.55917 55.4025 9.04326C52.9794 8.79681 51 6.84558 51 4.41V4.41Z" fill="#58CC02"/>
<path d="M51 4.41C51 1.97442 52.9778 -0.0190653 55.405 0.183108C61.9279 0.726437 68.2953 2.47282 74.1535 5.34068C81.3246 8.85126 87.5292 13.9426 92.2599 20.1985C96.9906 26.4544 100.113 33.6972 101.372 41.3347C102.631 48.9722 101.991 56.7876 99.5039 64.1418C97.0168 71.4961 92.7535 78.1804 87.0624 83.6482C81.3714 89.1161 74.4143 93.2122 66.7599 95.6018C59.1054 97.9913 50.9711 98.6064 43.0218 97.3967C36.6231 96.423 30.4905 94.2892 24.9456 91.1232C22.7439 89.8661 22.2943 86.9606 23.8235 84.9384V84.9384C25.2725 83.0221 27.967 82.6175 30.0671 83.7842C34.4997 86.2466 39.3764 87.9121 44.4579 88.6853C50.9763 89.6772 57.6465 89.1729 63.9231 87.2135C70.1997 85.254 75.9046 81.8952 80.5712 77.4116C85.2378 72.9279 88.7338 67.4468 90.7732 61.4163C92.8126 55.3858 93.3375 48.9772 92.3051 42.7145C91.2727 36.4517 88.7123 30.5126 84.8331 25.3828C80.9539 20.253 75.8662 16.078 69.9859 13.1994C65.4191 10.9637 60.4749 9.55917 55.4025 9.04326C52.9794 8.79681 51 6.84558 51 4.41V4.41Z" stroke="white" stroke-width="4" stroke-linejoin="round" mask="url(#path-2-outside-1_7_86)"/>
</svg>
