<svg width="102" height="98" viewBox="0 0 102 98" fill="none" xmlns="http://www.w3.org/2000/svg">
<path d="M102 50C102 77.062 79.1665 99 51 99C22.8335 99 0 77.062 0 50C0 22.938 22.8335 1 51 1C79.1665 1 102 22.938 102 50ZM9.18 50C9.18 72.1908 27.9035 90.18 51 90.18C74.0965 90.18 92.82 72.1908 92.82 50C92.82 27.8092 74.0965 9.82 51 9.82C27.9035 9.82 9.18 27.8092 9.18 50Z" fill="#E5E5E5"/>
<mask id="path-2-outside-1_20_6" maskUnits="userSpaceOnUse" x="49" y="-1" width="55" height="102" fill="black">
<rect fill="white" x="49" y="-1" width="55" height="102"/>
<path d="M51 5.41C51 2.97442 52.9778 0.980937 55.405 1.18311C60.5928 1.61523 65.69 2.80895 70.5169 4.7299C76.7045 7.19238 82.3267 10.8017 87.0624 15.3518C91.7982 19.9018 95.5549 25.3036 98.1179 31.2485C100.681 37.1935 102 43.5652 102 50C102 56.4348 100.681 62.8065 98.1179 68.7515C95.5549 74.6964 91.7982 80.0982 87.0624 84.6482C82.3267 89.1983 76.7045 92.8076 70.5169 95.2701C65.69 97.1911 60.5928 98.3848 55.405 98.8169C52.9778 99.0191 51 97.0256 51 94.59V94.59C51 92.1544 52.9794 90.2032 55.4025 89.9567C59.3835 89.5518 63.2912 88.599 67.0038 87.1215C72.0777 85.1022 76.6879 82.1426 80.5712 78.4116C84.4545 74.6805 87.535 70.2511 89.6366 65.3762C91.7383 60.5014 92.82 55.2765 92.82 50C92.82 44.7235 91.7383 39.4986 89.6366 34.6238C87.535 29.7489 84.4546 25.3195 80.5712 21.5884C76.6879 17.8574 72.0777 14.8978 67.0038 12.8785C63.2912 11.401 59.3835 10.4482 55.4025 10.0433C52.9794 9.79681 51 7.84558 51 5.41V5.41Z"/>
</mask>
<path d="M51 5.41C51 2.97442 52.9778 0.980937 55.405 1.18311C60.5928 1.61523 65.69 2.80895 70.5169 4.7299C76.7045 7.19238 82.3267 10.8017 87.0624 15.3518C91.7982 19.9018 95.5549 25.3036 98.1179 31.2485C100.681 37.1935 102 43.5652 102 50C102 56.4348 100.681 62.8065 98.1179 68.7515C95.5549 74.6964 91.7982 80.0982 87.0624 84.6482C82.3267 89.1983 76.7045 92.8076 70.5169 95.2701C65.69 97.1911 60.5928 98.3848 55.405 98.8169C52.9778 99.0191 51 97.0256 51 94.59V94.59C51 92.1544 52.9794 90.2032 55.4025 89.9567C59.3835 89.5518 63.2912 88.599 67.0038 87.1215C72.0777 85.1022 76.6879 82.1426 80.5712 78.4116C84.4545 74.6805 87.535 70.2511 89.6366 65.3762C91.7383 60.5014 92.82 55.2765 92.82 50C92.82 44.7235 91.7383 39.4986 89.6366 34.6238C87.535 29.7489 84.4546 25.3195 80.5712 21.5884C76.6879 17.8574 72.0777 14.8978 67.0038 12.8785C63.2912 11.401 59.3835 10.4482 55.4025 10.0433C52.9794 9.79681 51 7.84558 51 5.41V5.41Z" fill="#58CC02"/>
<path d="M51 5.41C51 2.97442 52.9778 0.980937 55.405 1.18311C60.5928 1.61523 65.69 2.80895 70.5169 4.7299C76.7045 7.19238 82.3267 10.8017 87.0624 15.3518C91.7982 19.9018 95.5549 25.3036 98.1179 31.2485C100.681 37.1935 102 43.5652 102 50C102 56.4348 100.681 62.8065 98.1179 68.7515C95.5549 74.6964 91.7982 80.0982 87.0624 84.6482C82.3267 89.1983 76.7045 92.8076 70.5169 95.2701C65.69 97.1911 60.5928 98.3848 55.405 98.8169C52.9778 99.0191 51 97.0256 51 94.59V94.59C51 92.1544 52.9794 90.2032 55.4025 89.9567C59.3835 89.5518 63.2912 88.599 67.0038 87.1215C72.0777 85.1022 76.6879 82.1426 80.5712 78.4116C84.4545 74.6805 87.535 70.2511 89.6366 65.3762C91.7383 60.5014 92.82 55.2765 92.82 50C92.82 44.7235 91.7383 39.4986 89.6366 34.6238C87.535 29.7489 84.4546 25.3195 80.5712 21.5884C76.6879 17.8574 72.0777 14.8978 67.0038 12.8785C63.2912 11.401 59.3835 10.4482 55.4025 10.0433C52.9794 9.79681 51 7.84558 51 5.41V5.41Z" stroke="white" stroke-width="4" stroke-linejoin="round" mask="url(#path-2-outside-1_20_6)"/>
</svg>
