<svg width="102" height="98" viewBox="0 0 102 98" fill="none" xmlns="http://www.w3.org/2000/svg">
<mask id="path-1-outside-1_23_71" maskUnits="userSpaceOnUse" x="-1" y="-1" width="104" height="100" fill="black">
<rect fill="white" x="-1" y="-1" width="104" height="100"/>
<path d="M51 0C79.1665 0 102 21.938 102 49C102 76.062 79.1665 98 51 98C22.8335 98 0 76.062 0 49C0 21.938 22.8335 0 51 0ZM51 89.18C74.0965 89.18 92.82 71.1908 92.82 49C92.82 26.8092 74.0965 8.82 51 8.82C27.9035 8.82 9.18 26.8092 9.18 49C9.18 71.1908 27.9035 89.18 51 89.18Z"/>
</mask>
<path d="M51 0C79.1665 0 102 21.938 102 49C102 76.062 79.1665 98 51 98C22.8335 98 0 76.062 0 49C0 21.938 22.8335 0 51 0ZM51 89.18C74.0965 89.18 92.82 71.1908 92.82 49C92.82 26.8092 74.0965 8.82 51 8.82C27.9035 8.82 9.18 26.8092 9.18 49C9.18 71.1908 27.9035 89.18 51 89.18Z" fill="#58CC02"/>
<path d="M51 0C79.1665 0 102 21.938 102 49C102 76.062 79.1665 98 51 98C22.8335 98 0 76.062 0 49C0 21.938 22.8335 0 51 0ZM51 89.18C74.0965 89.18 92.82 71.1908 92.82 49C92.82 26.8092 74.0965 8.82 51 8.82C27.9035 8.82 9.18 26.8092 9.18 49C9.18 71.1908 27.9035 89.18 51 89.18Z" stroke="#131F24" stroke-width="2" stroke-linejoin="round" mask="url(#path-1-outside-1_23_71)"/>
</svg>
