<svg width="102" height="98" viewBox="0 0 102 98" fill="none" xmlns="http://www.w3.org/2000/svg">
<g clip-path="url(#clip0_23_100)">
<rect width="102" height="98" fill="white"/>
<path d="M102 49C102 76.062 79.1665 98 51 98C22.8335 98 0 76.062 0 49C0 21.938 22.8335 0 51 0C79.1665 0 102 21.938 102 49ZM9.18 49C9.18 71.1908 27.9035 89.18 51 89.18C74.0965 89.18 92.82 71.1908 92.82 49C92.82 26.8092 74.0965 8.82 51 8.82C27.9035 8.82 9.18 26.8092 9.18 49Z" fill="#37464F"/>
<mask id="path-2-outside-1_23_100" maskUnits="userSpaceOnUse" x="-2" y="-2" width="106" height="102" fill="black">
<rect fill="white" x="-2" y="-2" width="106" height="102"/>
<path d="M51 4.41C51 1.97442 52.978 -0.0190735 55.4051 0.183086C64.6107 0.949821 73.457 4.10879 80.977 9.35817C89.6903 15.4404 96.1757 24.0168 99.5039 33.8582C102.832 43.6995 102.832 54.3005 99.5039 64.1418C96.1757 73.9832 89.6903 82.5596 80.977 88.6418C72.2638 94.7241 61.7701 98 51 98C40.2299 98 29.7362 94.7241 21.0229 88.6418C12.3097 82.5596 5.82427 73.9832 2.49612 64.1418C-0.353095 55.7167 -0.763116 46.7349 1.26606 38.1495C1.8372 35.733 4.38855 34.4489 6.75882 35.1889V35.1889C9.20925 35.9539 10.5215 38.5842 9.99686 41.0971C8.59026 47.8337 9.00024 54.8323 11.2268 61.4163C13.9559 69.4862 19.274 76.5188 26.4188 81.5063C33.5637 86.4938 42.1685 89.18 51 89.18C59.8315 89.18 68.4363 86.4938 75.5812 81.5063C82.726 76.5188 88.0441 69.4862 90.7732 61.4163C93.5023 53.3464 93.5023 44.6536 90.7732 36.5837C88.0441 28.5138 82.726 21.4812 75.5812 16.4937C69.6303 12.3397 62.6666 9.78203 55.4026 9.04324C52.9796 8.79679 51 6.84558 51 4.41V4.41Z"/>
</mask>
<path d="M51 4.41C51 1.97442 52.978 -0.0190735 55.4051 0.183086C64.6107 0.949821 73.457 4.10879 80.977 9.35817C89.6903 15.4404 96.1757 24.0168 99.5039 33.8582C102.832 43.6995 102.832 54.3005 99.5039 64.1418C96.1757 73.9832 89.6903 82.5596 80.977 88.6418C72.2638 94.7241 61.7701 98 51 98C40.2299 98 29.7362 94.7241 21.0229 88.6418C12.3097 82.5596 5.82427 73.9832 2.49612 64.1418C-0.353095 55.7167 -0.763116 46.7349 1.26606 38.1495C1.8372 35.733 4.38855 34.4489 6.75882 35.1889V35.1889C9.20925 35.9539 10.5215 38.5842 9.99686 41.0971C8.59026 47.8337 9.00024 54.8323 11.2268 61.4163C13.9559 69.4862 19.274 76.5188 26.4188 81.5063C33.5637 86.4938 42.1685 89.18 51 89.18C59.8315 89.18 68.4363 86.4938 75.5812 81.5063C82.726 76.5188 88.0441 69.4862 90.7732 61.4163C93.5023 53.3464 93.5023 44.6536 90.7732 36.5837C88.0441 28.5138 82.726 21.4812 75.5812 16.4937C69.6303 12.3397 62.6666 9.78203 55.4026 9.04324C52.9796 8.79679 51 6.84558 51 4.41V4.41Z" fill="#58CC02"/>
<path d="M51 4.41C51 1.97442 52.978 -0.0190735 55.4051 0.183086C64.6107 0.949821 73.457 4.10879 80.977 9.35817C89.6903 15.4404 96.1757 24.0168 99.5039 33.8582C102.832 43.6995 102.832 54.3005 99.5039 64.1418C96.1757 73.9832 89.6903 82.5596 80.977 88.6418C72.2638 94.7241 61.7701 98 51 98C40.2299 98 29.7362 94.7241 21.0229 88.6418C12.3097 82.5596 5.82427 73.9832 2.49612 64.1418C-0.353095 55.7167 -0.763116 46.7349 1.26606 38.1495C1.8372 35.733 4.38855 34.4489 6.75882 35.1889V35.1889C9.20925 35.9539 10.5215 38.5842 9.99686 41.0971C8.59026 47.8337 9.00024 54.8323 11.2268 61.4163C13.9559 69.4862 19.274 76.5188 26.4188 81.5063C33.5637 86.4938 42.1685 89.18 51 89.18C59.8315 89.18 68.4363 86.4938 75.5812 81.5063C82.726 76.5188 88.0441 69.4862 90.7732 61.4163C93.5023 53.3464 93.5023 44.6536 90.7732 36.5837C88.0441 28.5138 82.726 21.4812 75.5812 16.4937C69.6303 12.3397 62.6666 9.78203 55.4026 9.04324C52.9796 8.79679 51 6.84558 51 4.41V4.41Z" stroke="#131F24" stroke-width="4" stroke-linejoin="round" mask="url(#path-2-outside-1_23_100)"/>
</g>
<defs>
<clipPath id="clip0_23_100">
<rect width="102" height="98" fill="white"/>
</clipPath>
</defs>
</svg>
