<svg width="102" height="98" viewBox="0 0 102 98" fill="none" xmlns="http://www.w3.org/2000/svg">
<path d="M102 49C102 76.062 79.1665 98 51 98C22.8335 98 0 76.062 0 49C0 21.938 22.8335 0 51 0C79.1665 0 102 21.938 102 49ZM9.18 49C9.18 71.1908 27.9035 89.18 51 89.18C74.0965 89.18 92.82 71.1908 92.82 49C92.82 26.8092 74.0965 8.82 51 8.82C27.9035 8.82 9.18 26.8092 9.18 49Z" fill="#E5E5E5"/>
<mask id="path-2-outside-1_7_101" maskUnits="userSpaceOnUse" x="6" y="-2" width="98" height="102" fill="black">
<rect fill="white" x="6" y="-2" width="98" height="102"/>
<path d="M51 4.41C51 1.97442 52.9779 -0.0190672 55.405 0.183104C62.8201 0.80074 70.0235 2.97218 76.5 6.56476C84.253 10.8654 90.6911 17.0511 95.1673 24.5C99.6435 31.9489 102 40.3987 102 49C102 57.6013 99.6435 66.0511 95.1673 73.5C90.6911 80.9489 84.253 87.1346 76.5 91.4352C68.747 95.7359 59.9524 98 51 98C42.0476 98 33.253 95.7359 25.5 91.4352C19.1471 87.9112 13.677 83.1215 9.44582 77.4082C7.91588 75.3424 8.69745 72.4656 10.9454 71.2186V71.2186C13.0859 70.0313 15.7622 70.7723 17.2448 72.7199C20.6685 77.2175 25.039 80.9951 30.09 83.7969C36.4474 87.3234 43.6591 89.18 51 89.18C58.3409 89.18 65.5526 87.3234 71.91 83.7969C78.2674 80.2704 83.5467 75.1981 87.2172 69.09C90.8877 62.9819 92.82 56.0531 92.82 49C92.82 41.9469 90.8877 35.0181 87.2172 28.91C83.5467 22.8019 78.2674 17.7296 71.91 14.2031C66.8297 11.385 61.2039 9.63331 55.4026 9.04326C52.9795 8.7968 51 6.84558 51 4.41V4.41Z"/>
</mask>
<path d="M51 4.41C51 1.97442 52.9779 -0.0190672 55.405 0.183104C62.8201 0.80074 70.0235 2.97218 76.5 6.56476C84.253 10.8654 90.6911 17.0511 95.1673 24.5C99.6435 31.9489 102 40.3987 102 49C102 57.6013 99.6435 66.0511 95.1673 73.5C90.6911 80.9489 84.253 87.1346 76.5 91.4352C68.747 95.7359 59.9524 98 51 98C42.0476 98 33.253 95.7359 25.5 91.4352C19.1471 87.9112 13.677 83.1215 9.44582 77.4082C7.91588 75.3424 8.69745 72.4656 10.9454 71.2186V71.2186C13.0859 70.0313 15.7622 70.7723 17.2448 72.7199C20.6685 77.2175 25.039 80.9951 30.09 83.7969C36.4474 87.3234 43.6591 89.18 51 89.18C58.3409 89.18 65.5526 87.3234 71.91 83.7969C78.2674 80.2704 83.5467 75.1981 87.2172 69.09C90.8877 62.9819 92.82 56.0531 92.82 49C92.82 41.9469 90.8877 35.0181 87.2172 28.91C83.5467 22.8019 78.2674 17.7296 71.91 14.2031C66.8297 11.385 61.2039 9.63331 55.4026 9.04326C52.9795 8.7968 51 6.84558 51 4.41V4.41Z" fill="#58CC02"/>
<path d="M51 4.41C51 1.97442 52.9779 -0.0190672 55.405 0.183104C62.8201 0.80074 70.0235 2.97218 76.5 6.56476C84.253 10.8654 90.6911 17.0511 95.1673 24.5C99.6435 31.9489 102 40.3987 102 49C102 57.6013 99.6435 66.0511 95.1673 73.5C90.6911 80.9489 84.253 87.1346 76.5 91.4352C68.747 95.7359 59.9524 98 51 98C42.0476 98 33.253 95.7359 25.5 91.4352C19.1471 87.9112 13.677 83.1215 9.44582 77.4082C7.91588 75.3424 8.69745 72.4656 10.9454 71.2186V71.2186C13.0859 70.0313 15.7622 70.7723 17.2448 72.7199C20.6685 77.2175 25.039 80.9951 30.09 83.7969C36.4474 87.3234 43.6591 89.18 51 89.18C58.3409 89.18 65.5526 87.3234 71.91 83.7969C78.2674 80.2704 83.5467 75.1981 87.2172 69.09C90.8877 62.9819 92.82 56.0531 92.82 49C92.82 41.9469 90.8877 35.0181 87.2172 28.91C83.5467 22.8019 78.2674 17.7296 71.91 14.2031C66.8297 11.385 61.2039 9.63331 55.4026 9.04326C52.9795 8.7968 51 6.84558 51 4.41V4.41Z" stroke="white" stroke-width="4" stroke-linejoin="round" mask="url(#path-2-outside-1_7_101)"/>
</svg>
