<svg width="102" height="98" viewBox="0 0 102 98" fill="none" xmlns="http://www.w3.org/2000/svg">
<g clip-path="url(#clip0_23_117)">
<rect width="102" height="98" fill="white"/>
<path d="M102 49C102 76.062 79.1665 98 51 98C22.8335 98 0 76.062 0 49C0 21.938 22.8335 0 51 0C79.1665 0 102 21.938 102 49ZM9.18 49C9.18 71.1908 27.9035 89.18 51 89.18C74.0965 89.18 92.82 71.1908 92.82 49C92.82 26.8092 74.0965 8.82 51 8.82C27.9035 8.82 9.18 26.8092 9.18 49Z" fill="#37464F"/>
<mask id="path-2-outside-1_23_117" maskUnits="userSpaceOnUse" x="49" y="-2" width="47" height="32" fill="black">
<rect fill="white" x="49" y="-2" width="47" height="32"/>
<path d="M51 4.41C51 1.97442 52.9779 -0.0190672 55.405 0.183104C62.8201 0.800739 70.0235 2.97217 76.5 6.56475C82.8529 10.0888 88.323 14.8785 92.5542 20.5918C94.0841 22.6576 93.3025 25.5344 91.0546 26.7814V26.7814C88.9141 27.9687 86.2378 27.2277 84.7552 25.2801C81.3314 20.7825 76.961 17.0049 71.91 14.2031C66.8297 11.385 61.2039 9.63331 55.4026 9.04326C52.9795 8.7968 51 6.84558 51 4.41V4.41Z"/>
</mask>
<path d="M51 4.41C51 1.97442 52.9779 -0.0190672 55.405 0.183104C62.8201 0.800739 70.0235 2.97217 76.5 6.56475C82.8529 10.0888 88.323 14.8785 92.5542 20.5918C94.0841 22.6576 93.3025 25.5344 91.0546 26.7814V26.7814C88.9141 27.9687 86.2378 27.2277 84.7552 25.2801C81.3314 20.7825 76.961 17.0049 71.91 14.2031C66.8297 11.385 61.2039 9.63331 55.4026 9.04326C52.9795 8.7968 51 6.84558 51 4.41V4.41Z" fill="#58CC02"/>
<path d="M51 4.41C51 1.97442 52.9779 -0.0190672 55.405 0.183104C62.8201 0.800739 70.0235 2.97217 76.5 6.56475C82.8529 10.0888 88.323 14.8785 92.5542 20.5918C94.0841 22.6576 93.3025 25.5344 91.0546 26.7814V26.7814C88.9141 27.9687 86.2378 27.2277 84.7552 25.2801C81.3314 20.7825 76.961 17.0049 71.91 14.2031C66.8297 11.385 61.2039 9.63331 55.4026 9.04326C52.9795 8.7968 51 6.84558 51 4.41V4.41Z" stroke="#131F24" stroke-width="4" stroke-linejoin="round" mask="url(#path-2-outside-1_23_117)"/>
</g>
<defs>
<clipPath id="clip0_23_117">
<rect width="102" height="98" fill="white"/>
</clipPath>
</defs>
</svg>
