<svg width="102" height="98" viewBox="0 0 102 98" fill="none" xmlns="http://www.w3.org/2000/svg">
<g clip-path="url(#clip0_23_117)">
<rect width="102" height="98" fill="white"/>
<path d="M102 49C102 76.062 79.1665 98 51 98C22.8335 98 0 76.062 0 49C0 21.938 22.8335 0 51 0C79.1665 0 102 21.938 102 49ZM9.18 49C9.18 71.1908 27.9035 89.18 51 89.18C74.0965 89.18 92.82 71.1908 92.82 49C92.82 26.8092 74.0965 8.82 51 8.82C27.9035 8.82 9.18 26.8092 9.18 49Z" fill="#37464F"/>
<mask id="path-2-outside-1_23_117" maskUnits="userSpaceOnUse" x="49" y="-2" width="55" height="102" fill="black">
<rect fill="white" x="49" y="-2" width="55" height="102"/>
<path d="M51 4.41C51 1.97442 52.9778 -0.0190628 55.405 0.183111C60.5928 0.615233 65.69 1.80895 70.5169 3.7299C76.7045 6.19238 82.3267 9.8017 87.0624 14.3518C91.7982 18.9018 95.5549 24.3036 98.1179 30.2485C100.681 36.1935 102 42.5652 102 49C102 55.4348 100.681 61.8065 98.1179 67.7515C95.5549 73.6964 91.7982 79.0982 87.0624 83.6482C82.3267 88.1983 76.7045 91.8076 70.5169 94.2701C65.69 96.1911 60.5928 97.3848 55.405 97.8169C52.9778 98.0191 51 96.0256 51 93.59V93.59C51 91.1544 52.9794 89.2032 55.4025 88.9567C59.3835 88.5518 63.2912 87.599 67.0038 86.1215C72.0777 84.1022 76.6879 81.1426 80.5712 77.4116C84.4545 73.6805 87.535 69.2511 89.6366 64.3762C91.7383 59.5014 92.82 54.2765 92.82 49C92.82 43.7235 91.7383 38.4986 89.6366 33.6238C87.535 28.7489 84.4546 24.3195 80.5712 20.5884C76.6879 16.8574 72.0777 13.8978 67.0038 11.8785C63.2912 10.401 59.3835 9.44817 55.4025 9.04326C52.9794 8.79681 51 6.84558 51 4.41V4.41Z"/>
</mask>
<path d="M51 4.41C51 1.97442 52.9778 -0.0190628 55.405 0.183111C60.5928 0.615233 65.69 1.80895 70.5169 3.7299C76.7045 6.19238 82.3267 9.8017 87.0624 14.3518C91.7982 18.9018 95.5549 24.3036 98.1179 30.2485C100.681 36.1935 102 42.5652 102 49C102 55.4348 100.681 61.8065 98.1179 67.7515C95.5549 73.6964 91.7982 79.0982 87.0624 83.6482C82.3267 88.1983 76.7045 91.8076 70.5169 94.2701C65.69 96.1911 60.5928 97.3848 55.405 97.8169C52.9778 98.0191 51 96.0256 51 93.59V93.59C51 91.1544 52.9794 89.2032 55.4025 88.9567C59.3835 88.5518 63.2912 87.599 67.0038 86.1215C72.0777 84.1022 76.6879 81.1426 80.5712 77.4116C84.4545 73.6805 87.535 69.2511 89.6366 64.3762C91.7383 59.5014 92.82 54.2765 92.82 49C92.82 43.7235 91.7383 38.4986 89.6366 33.6238C87.535 28.7489 84.4546 24.3195 80.5712 20.5884C76.6879 16.8574 72.0777 13.8978 67.0038 11.8785C63.2912 10.401 59.3835 9.44817 55.4025 9.04326C52.9794 8.79681 51 6.84558 51 4.41V4.41Z" fill="#58CC02"/>
<path d="M51 4.41C51 1.97442 52.9778 -0.0190628 55.405 0.183111C60.5928 0.615233 65.69 1.80895 70.5169 3.7299C76.7045 6.19238 82.3267 9.8017 87.0624 14.3518C91.7982 18.9018 95.5549 24.3036 98.1179 30.2485C100.681 36.1935 102 42.5652 102 49C102 55.4348 100.681 61.8065 98.1179 67.7515C95.5549 73.6964 91.7982 79.0982 87.0624 83.6482C82.3267 88.1983 76.7045 91.8076 70.5169 94.2701C65.69 96.1911 60.5928 97.3848 55.405 97.8169C52.9778 98.0191 51 96.0256 51 93.59V93.59C51 91.1544 52.9794 89.2032 55.4025 88.9567C59.3835 88.5518 63.2912 87.599 67.0038 86.1215C72.0777 84.1022 76.6879 81.1426 80.5712 77.4116C84.4545 73.6805 87.535 69.2511 89.6366 64.3762C91.7383 59.5014 92.82 54.2765 92.82 49C92.82 43.7235 91.7383 38.4986 89.6366 33.6238C87.535 28.7489 84.4546 24.3195 80.5712 20.5884C76.6879 16.8574 72.0777 13.8978 67.0038 11.8785C63.2912 10.401 59.3835 9.44817 55.4025 9.04326C52.9794 8.79681 51 6.84558 51 4.41V4.41Z" stroke="#131F24" stroke-width="4" stroke-linejoin="round" mask="url(#path-2-outside-1_23_117)"/>
</g>
<defs>
<clipPath id="clip0_23_117">
<rect width="102" height="98" fill="white"/>
</clipPath>
</defs>
</svg>
