<svg width="102" height="98" viewBox="0 0 102 98" fill="none" xmlns="http://www.w3.org/2000/svg">
<path d="M102 49C102 76.062 79.1665 98 51 98C22.8335 98 0 76.062 0 49C0 21.938 22.8335 0 51 0C79.1665 0 102 21.938 102 49ZM9.18 49C9.18 71.1908 27.9035 89.18 51 89.18C74.0965 89.18 92.82 71.1908 92.82 49C92.82 26.8092 74.0965 8.82 51 8.82C27.9035 8.82 9.18 26.8092 9.18 49Z" fill="#E5E5E5"/>
<mask id="path-2-outside-1_7_98" maskUnits="userSpaceOnUse" x="49" y="-2" width="55" height="76" fill="black">
<rect fill="white" x="49" y="-2" width="55" height="76"/>
<path d="M51 4.41C51 1.97442 52.9779 -0.0190672 55.405 0.183104C62.8201 0.800739 70.0235 2.97217 76.5 6.56475C84.253 10.8654 90.6911 17.0511 95.1673 24.5C99.6435 31.9489 102 40.3987 102 49C102 56.1475 100.373 63.1904 97.2542 69.6413C96.1888 71.845 93.4704 72.5587 91.3299 71.3714V71.3714C89.0819 70.1244 88.3417 67.2695 89.3952 64.9247C91.6478 59.9112 92.82 54.4933 92.82 49C92.82 41.9469 90.8877 35.0181 87.2172 28.91C83.5467 22.8019 78.2674 17.7296 71.91 14.2031C66.8297 11.385 61.2039 9.63331 55.4026 9.04326C52.9795 8.7968 51 6.84558 51 4.41V4.41Z"/>
</mask>
<path d="M51 4.41C51 1.97442 52.9779 -0.0190672 55.405 0.183104C62.8201 0.800739 70.0235 2.97217 76.5 6.56475C84.253 10.8654 90.6911 17.0511 95.1673 24.5C99.6435 31.9489 102 40.3987 102 49C102 56.1475 100.373 63.1904 97.2542 69.6413C96.1888 71.845 93.4704 72.5587 91.3299 71.3714V71.3714C89.0819 70.1244 88.3417 67.2695 89.3952 64.9247C91.6478 59.9112 92.82 54.4933 92.82 49C92.82 41.9469 90.8877 35.0181 87.2172 28.91C83.5467 22.8019 78.2674 17.7296 71.91 14.2031C66.8297 11.385 61.2039 9.63331 55.4026 9.04326C52.9795 8.7968 51 6.84558 51 4.41V4.41Z" fill="#58CC02"/>
<path d="M51 4.41C51 1.97442 52.9779 -0.0190672 55.405 0.183104C62.8201 0.800739 70.0235 2.97217 76.5 6.56475C84.253 10.8654 90.6911 17.0511 95.1673 24.5C99.6435 31.9489 102 40.3987 102 49C102 56.1475 100.373 63.1904 97.2542 69.6413C96.1888 71.845 93.4704 72.5587 91.3299 71.3714V71.3714C89.0819 70.1244 88.3417 67.2695 89.3952 64.9247C91.6478 59.9112 92.82 54.4933 92.82 49C92.82 41.9469 90.8877 35.0181 87.2172 28.91C83.5467 22.8019 78.2674 17.7296 71.91 14.2031C66.8297 11.385 61.2039 9.63331 55.4026 9.04326C52.9795 8.7968 51 6.84558 51 4.41V4.41Z" stroke="white" stroke-width="4" stroke-linejoin="round" mask="url(#path-2-outside-1_7_98)"/>
</svg>
